<?xml version="1.0" standalone="no"?>
<!DOCTYPE svg PUBLIC "-//W3C//DTD SVG 20010904//EN"
 "http://www.w3.org/TR/2001/REC-SVG-20010904/DTD/svg10.dtd">
<svg version="1.0" xmlns="http://www.w3.org/2000/svg"
 width="512.000000pt" height="512.000000pt" viewBox="0 0 512.000000 512.000000"
 preserveAspectRatio="xMidYMid meet">
<metadata>
Created by potrace 1.11, written by Peter Selinger 2001-2013
</metadata>
<g transform="translate(0.000000,512.000000) scale(0.100000,-0.100000)"
fill="#000000" stroke="none">
<path d="M1362 4503 c-6 -3 -10 -8 -7 -13 2 -4 -8 -6 -24 -4 -19 2 -31 -2 -35
-12 -3 -8 -2 -12 4 -9 13 8 13 -1 0 -26 -8 -14 -7 -19 1 -19 9 0 9 -3 0 -14
-9 -11 -8 -15 6 -21 17 -6 17 -7 0 -20 -12 -9 -14 -14 -6 -17 7 -2 13 -12 15
-21 1 -9 -2 -15 -6 -12 -5 3 -11 1 -15 -5 -3 -5 -2 -10 4 -10 7 0 7 -8 2 -22
-14 -36 -13 -39 6 -53 17 -13 17 -14 0 -21 -14 -5 -15 -9 -6 -15 7 -4 14 -15
15 -23 1 -9 -2 -14 -6 -11 -5 3 -11 1 -15 -5 -3 -5 -2 -10 4 -10 7 0 7 -9 0
-27 -12 -32 -12 -34 10 -50 14 -10 14 -12 -2 -19 -14 -5 -15 -9 -6 -15 7 -4
14 -15 15 -23 1 -9 -2 -14 -6 -11 -5 3 -11 1 -15 -5 -3 -5 -1 -10 5 -10 6 0 9
-4 6 -8 -15 -24 -13 -61 2 -67 16 -6 16 -7 -1 -20 -15 -11 -15 -13 -2 -18 8
-4 12 -13 9 -22 -3 -8 -9 -13 -13 -10 -4 2 -8 -2 -8 -10 0 -8 4 -12 8 -10 3 3
9 -4 12 -15 3 -11 0 -23 -5 -27 -7 -3 -8 -1 -4 5 4 7 2 12 -3 12 -14 0 -14
-17 -1 -25 8 -5 7 -12 -2 -23 -10 -12 -10 -14 0 -8 13 8 17 -6 5 -18 -11 -11
-11 -46 1 -46 6 0 5 -5 -2 -12 -18 -18 -15 -28 11 -29 l22 0 -22 -9 c-13 -5
-23 -15 -23 -22 0 -9 3 -9 10 2 6 10 8 -1 6 -36 -2 -28 -7 -57 -11 -64 -5 -9
-4 -11 3 -6 13 8 17 -6 5 -18 -11 -11 -11 -46 1 -46 6 0 5 -5 -2 -12 -18 -18
-15 -28 11 -29 l22 0 -22 -9 c-13 -5 -23 -15 -23 -22 0 -9 3 -9 10 2 6 10 8
-1 6 -36 -2 -28 -7 -57 -11 -64 -5 -9 -4 -11 3 -6 13 8 17 -6 5 -18 -11 -11
-11 -46 1 -46 6 0 5 -5 -2 -12 -18 -18 -15 -28 11 -29 l22 0 -22 -9 c-13 -5
-23 -15 -23 -22 0 -9 3 -9 10 2 6 10 8 -1 6 -36 -2 -28 -7 -57 -11 -64 -5 -9
-4 -11 3 -6 13 8 17 -6 5 -18 -11 -11 -11 -46 1 -46 6 0 5 -5 -2 -12 -18 -18
-15 -28 11 -29 l22 0 -22 -9 c-13 -5 -23 -15 -23 -22 0 -9 3 -9 10 2 6 10 8
-1 6 -36 -2 -28 -7 -57 -11 -64 -5 -9 -4 -11 3 -6 13 8 17 -6 5 -18 -11 -11
-11 -46 1 -46 6 0 5 -5 -2 -12 -18 -18 -15 -28 11 -29 l22 0 -22 -9 c-13 -5
-23 -15 -23 -22 0 -9 3 -9 10 2 6 10 8 -1 6 -36 -2 -28 -7 -57 -11 -64 -5 -9
-4 -11 3 -6 13 8 17 -6 5 -18 -11 -11 -11 -46 1 -46 6 0 5 -5 -2 -12 -18 -18
-15 -28 11 -29 l22 0 -22 -9 c-13 -5 -23 -15 -23 -22 0 -9 3 -9 10 2 6 10 8
-1 6 -36 -2 -28 -7 -57 -11 -64 -5 -9 -4 -11 3 -6 13 8 17 -6 5 -18 -11 -11
-11 -46 1 -46 6 0 5 -5 -2 -12 -18 -18 -15 -28 11 -29 l22 0 -22 -9 c-13 -5
-23 -15 -23 -22 0 -9 3 -9 10 2 6 10 8 -1 6 -36 -2 -28 -7 -57 -11 -64 -5 -9
-4 -11 3 -6 13 8 17 -6 5 -18 -11 -11 -11 -46 1 -46 6 0 5 -5 -2 -12 -18 -18
-15 -28 11 -29 l22 0 -22 -9 c-13 -5 -23 -15 -23 -22 0 -9 3 -9 10 2 6 10 8
-1 6 -36 -2 -28 -7 -57 -11 -64 -5 -9 -4 -11 3 -6 13 8 17 -6 5 -18 -11 -11
-11 -46 1 -46 6 0 5 -5 -2 -12 -18 -18 -15 -28 11 -29 l22 0 -22 -9 c-13 -5
-23 -15 -23 -22 0 -9 3 -9 10 2 6 10 8 -1 6 -36 -2 -28 -7 -57 -11 -64 -5 -9
-4 -11 3 -6 13 8 17 -6 5 -18 -11 -11 -11 -46 1 -46 6 0 5 -5 -2 -12 -18 -18
-15 -28 11 -29 l22 0 -22 -9 c-13 -5 -23 -15 -23 -22 0 -9 3 -9 10 2 6 10 8
-1 6 -36 -2 -28 -7 -57 -11 -64 -5 -9 -4 -11 3 -6 13 8 17 -6 5 -17 -9 -10
-10 -57 -1 -57 6 0 -7 -47 -15 -57 -1 -1 7 -9 18 -17 19 -14 19 -15 2 -22 -14
-5 -15 -9 -6 -15 7 -4 14 -15 15 -23 1 -9 -2 -14 -6 -11 -5 3 -11 1 -15 -5 -3
-5 -1 -10 5 -10 6 0 9 -4 6 -8 -15 -24 -13 -61 2 -67 16 -6 16 -7 -1 -20 -15
-11 -15 -13 -2 -18 8 -4 12 -13 9 -22 -3 -8 -9 -13 -13 -10 -9 5 -6 -60 5 -94
5 -17 4 -22 -4 -17 -7 4 -12 3 -12 -3 0 -5 5 -11 12 -13 14 -5 20 -38 6 -38
-6 0 -7 7 -4 16 3 8 2 12 -3 9 -10 -6 -11 -44 -1 -43 3 0 12 0 20 -1 13 -1 13
-2 0 -11 -12 -7 -10 -9 8 -7 14 1 21 6 18 14 -7 17 -1 16 19 -3 13 -14 19 -14
28 -4 9 10 9 11 -2 5 -10 -6 -12 -4 -6 5 6 10 11 9 21 -4 7 -10 18 -15 24 -11
6 4 18 1 27 -7 10 -8 14 -8 10 -1 -12 19 11 25 23 6 11 -16 11 -16 5 2 -3 11
-3 16 1 13 4 -4 15 -3 25 2 12 7 20 6 25 -2 4 -6 3 -8 -2 -5 -6 3 -16 2 -24
-3 -10 -6 -4 -8 18 -6 17 1 35 6 39 11 4 4 2 5 -6 0 -10 -6 -12 -4 -6 4 5 9
11 9 17 3 6 -6 17 -8 26 -5 10 4 13 2 8 -5 -4 -7 -3 -12 3 -12 5 0 11 6 14 13
3 8 10 6 21 -8 l16 -20 -7 20 c-6 18 -5 19 12 5 17 -14 18 -13 12 5 -6 18 -5
18 5 3 11 -15 13 -15 26 0 7 9 11 12 8 5 -4 -6 -2 -14 4 -18 5 -3 10 2 10 12
0 15 2 16 10 3 5 -8 10 -10 11 -5 0 6 4 1 9 -10 7 -17 9 -17 9 -3 1 12 6 15
19 11 15 -6 16 -5 2 12 -12 15 -12 17 -1 10 11 -6 13 -4 8 8 -4 10 -1 17 6 17
8 0 8 3 -2 9 -10 7 -10 10 -1 13 10 3 10 9 1 26 -8 14 -8 22 -1 22 5 0 10 4
10 10 0 5 -8 7 -17 4 -11 -4 -14 -3 -7 3 11 7 19 39 15 53 -7 20 -4 121 3 123
5 2 4 13 -2 24 -9 16 -9 23 1 26 8 4 8 6 -2 6 -11 1 -10 5 5 17 10 8 13 13 7
9 -7 -3 -13 -3 -14 2 0 4 -2 16 -4 25 -2 12 2 15 13 11 16 -4 16 -3 0 9 -15
13 -15 15 0 26 9 7 11 10 5 7 -7 -3 -13 -3 -14 2 0 4 -2 16 -4 25 -2 11 2 15
11 11 10 -3 12 0 8 10 -3 9 -13 14 -22 10 -14 -4 -14 -3 -3 5 13 10 18 103 6
122 -3 5 -1 11 5 15 17 10 11 25 -7 19 -14 -5 -15 -4 -4 4 13 10 18 103 6 122
-3 5 -1 11 5 15 17 10 11 25 -7 19 -14 -5 -15 -4 -4 4 13 10 18 103 6 122 -3
5 -1 11 5 15 17 10 11 25 -7 19 -14 -5 -15 -4 -4 4 13 9 15 48 7 137 -1 17 2
33 7 36 5 4 4 15 -2 28 -8 14 -8 21 -1 21 5 0 10 4 10 10 0 5 -8 7 -17 4 -11
-4 -14 -3 -7 3 11 7 19 40 15 53 -8 20 -4 100 4 100 6 0 3 5 -5 10 -12 7 -12
10 -1 10 9 0 11 6 6 18 -7 17 -8 37 -6 96 1 21 5 27 16 22 8 -3 14 -2 12 2 -1
4 3 7 8 7 6 0 9 -4 7 -9 -2 -5 4 -4 12 3 8 7 21 9 27 5 9 -5 10 -2 6 12 -7 18
-7 18 8 0 8 -11 15 -14 15 -7 0 7 5 9 10 6 6 -4 8 -11 5 -16 -3 -5 1 -6 9 -3
9 3 14 10 11 14 -4 7 24 6 33 0 1 -2 6 -3 11 -4 5 0 13 -4 17 -8 4 -4 14 -2
22 4 19 16 52 21 52 7 0 -5 -5 -7 -12 -3 -7 5 -8 3 -3 -6 6 -10 11 -9 22 5 9
14 13 15 13 4 0 -12 2 -12 10 1 9 13 10 13 10 0 0 -13 2 -13 9 -1 7 11 10 10
14 -5 4 -17 5 -17 6 -1 0 10 6 15 11 12 6 -4 8 -11 5 -16 -3 -5 1 -6 9 -3 9 3
14 10 11 14 -6 10 15 8 33 -3 7 -5 12 -3 12 3 0 6 5 8 10 5 6 -4 8 -11 5 -16
-3 -5 1 -6 9 -3 9 3 14 10 11 14 -6 10 15 8 33 -3 6 -5 12 -5 12 -1 0 3 6 1
14 -5 11 -10 17 -8 25 6 7 12 10 13 11 4 0 -10 3 -11 14 -2 11 10 17 8 25 -6
7 -13 10 -14 11 -4 0 8 3 11 7 8 3 -4 12 -2 19 4 8 7 14 6 20 -2 4 -8 3 -9 -4
-5 -8 5 -10 2 -6 -9 6 -14 8 -14 21 2 14 17 14 17 9 0 -3 -11 -2 -16 4 -12 6
3 10 14 11 23 1 11 4 8 9 -8 4 -14 8 -19 9 -12 1 6 8 12 17 12 8 0 13 -4 10
-8 -6 -11 25 -9 43 3 10 6 12 4 6 -5 -6 -10 -3 -12 14 -7 12 3 27 -1 36 -9 8
-9 16 -10 20 -4 3 5 12 10 18 10 7 0 6 -4 -3 -10 -11 -7 -11 -10 -2 -10 7 0
11 -4 8 -8 -3 -5 1 -9 9 -9 8 0 12 4 10 8 -8 11 21 5 37 -9 8 -6 18 -9 21 -5
4 3 7 -1 7 -10 0 -10 5 -18 10 -18 6 -1 16 -2 23 -3 6 -1 11 -8 9 -15 -2 -9 4
-12 18 -8 17 4 20 2 16 -10 -6 -13 -4 -14 9 -3 9 7 15 9 14 4 -5 -26 1 -36 15
-25 12 10 14 8 12 -13 -2 -18 1 -23 12 -18 10 3 13 1 8 -6 -4 -7 -3 -12 3 -12
5 0 13 -9 16 -20 3 -11 11 -20 17 -20 6 0 6 6 -2 15 -7 9 -10 18 -8 21 3 3 12
-9 19 -25 8 -17 21 -31 29 -31 13 0 13 -1 0 -10 -13 -8 -12 -10 3 -10 10 0 15
-4 12 -10 -3 -5 1 -10 9 -10 9 0 16 -5 16 -11 0 -5 -4 -7 -10 -4 -6 3 -7 -1
-4 -9 3 -9 9 -15 12 -14 22 2 30 -4 25 -22 -4 -14 0 -20 10 -20 9 0 19 -5 23
-12 5 -8 2 -9 -10 -5 -14 5 -15 3 -6 -13 5 -10 16 -22 23 -26 7 -5 6 0 -3 12
-14 18 -14 18 3 5 19 -15 24 -47 5 -35 -7 4 -8 3 -4 -5 4 -6 11 -9 15 -6 5 2
17 -5 27 -17 11 -12 13 -18 7 -14 -7 4 -13 3 -13 -3 0 -5 6 -12 13 -14 9 -4 8
-8 -3 -17 -12 -10 -11 -11 8 -7 18 4 21 3 12 -8 -8 -10 -8 -15 1 -21 8 -5 10
-3 5 7 -4 8 0 5 9 -6 9 -11 14 -28 11 -38 -2 -10 2 -17 11 -17 8 0 13 -7 11
-18 -1 -10 12 -35 29 -57 27 -32 30 -41 20 -54 -10 -12 -9 -13 2 -6 11 6 13 2
9 -18 -4 -18 -1 -24 9 -20 7 3 13 -2 13 -11 0 -9 5 -16 11 -16 8 0 7 -6 -2
-17 -10 -11 -10 -14 -1 -9 7 4 12 2 12 -4 0 -6 5 -8 13 -4 7 5 6 0 -3 -11 -14
-17 -13 -17 10 -11 18 5 21 5 10 -3 -12 -8 -12 -13 -1 -35 8 -14 19 -22 25
-19 6 4 4 -2 -4 -12 -9 -11 -10 -16 -2 -11 11 6 16 -4 13 -26 0 -4 8 -10 19
-13 17 -5 18 -10 9 -27 -8 -15 -8 -19 0 -14 6 4 11 0 11 -9 0 -9 5 -13 11 -9
8 5 8 1 0 -14 -8 -16 -7 -23 7 -33 16 -13 16 -13 2 5 -9 12 -10 17 -3 12 7 -4
18 -16 24 -28 8 -14 8 -18 0 -14 -7 5 -9 1 -5 -8 3 -9 11 -13 17 -9 6 4 8 0 4
-11 -4 -10 1 -29 11 -44 9 -14 15 -27 12 -28 -3 -1 -1 -6 4 -11 5 -5 6 -3 2 4
-4 7 -2 13 3 13 6 0 11 -12 11 -26 0 -19 4 -25 15 -20 8 3 15 1 15 -4 0 -6 -5
-10 -11 -10 -6 0 -1 -11 12 -24 23 -24 38 -73 18 -60 -6 3 -3 -5 6 -20 18 -27
31 -36 20 -13 -4 6 2 1 13 -13 15 -17 17 -27 9 -32 -8 -5 -6 -9 5 -13 9 -4 19
-14 22 -22 5 -13 4 -14 -9 -3 -13 11 -14 10 -9 -4 3 -9 12 -16 19 -16 7 0 16
-7 19 -16 6 -15 4 -15 -11 -3 -16 13 -17 12 -5 -3 8 -10 10 -23 6 -30 -6 -10
-3 -9 9 1 14 11 17 11 18 0 1 -8 1 -18 0 -23 -1 -5 5 -4 13 4 13 10 16 10 16
-1 0 -9 3 -10 8 -4 13 19 35 17 28 -2 -6 -14 -2 -12 17 6 24 22 26 22 35 4 9
-15 13 -16 24 -4 11 12 11 13 -1 6 -10 -6 -12 -4 -7 4 6 8 12 9 20 2 7 -6 16
-8 19 -4 4 3 7 0 7 -8 0 -11 2 -11 10 1 9 13 10 13 10 0 0 -12 2 -13 9 -1 6 9
14 10 22 5 22 -14 70 -12 65 2 -3 8 1 11 9 7 8 -3 13 -8 10 -12 -2 -4 3 -8 11
-8 8 0 13 6 10 13 -3 8 0 11 9 7 8 -3 13 -8 11 -12 -3 -4 4 -7 15 -7 10 0 19
7 19 15 0 11 3 10 13 -4 10 -13 16 -15 21 -6 4 6 12 9 17 5 5 -3 6 -10 3 -16
-5 -7 -2 -8 5 -4 7 5 10 14 7 22 -3 8 0 11 9 7 8 -3 12 -10 8 -17 -4 -6 0 -6
9 2 13 10 17 10 21 0 4 -10 6 -10 6 0 1 6 6 12 12 12 5 0 7 -6 3 -12 -4 -7 -3
-9 1 -5 12 10 15 38 4 31 -5 -3 -9 5 -9 18 0 13 -9 29 -21 36 -17 11 -19 16
-7 29 11 14 11 15 -1 8 -11 -6 -13 -4 -7 10 6 16 4 16 -11 4 -13 -11 -15 -11
-9 -1 5 8 1 22 -11 35 -16 19 -16 20 0 8 15 -12 17 -12 11 3 -3 9 -10 16 -16
16 -5 0 -6 5 -3 10 3 6 1 10 -5 10 -7 0 -9 8 -5 21 5 15 4 19 -4 15 -6 -4 -11
-2 -11 4 0 6 -5 8 -12 4 -8 -5 -8 -1 2 12 8 10 10 16 6 12 -5 -5 -16 2 -25 15
-17 24 -18 26 -20 57 0 11 -8 20 -16 20 -8 0 -15 5 -15 11 0 5 4 8 8 5 5 -3 9
1 9 9 0 8 -4 12 -9 9 -4 -3 -8 0 -8 6 0 6 -4 8 -10 5 -6 -3 -10 1 -10 10 0 9
4 14 8 11 5 -3 9 1 9 9 0 11 -5 11 -19 4 -18 -10 -18 -8 -8 11 8 15 8 20 1 16
-6 -4 -11 0 -11 8 0 9 -5 16 -11 16 -5 0 -8 4 -5 9 9 14 -5 42 -17 34 -6 -4
-8 0 -4 10 4 12 1 17 -11 17 -15 0 -15 2 -2 10 10 6 11 10 3 10 -7 0 -12 3
-12 8 4 21 -2 32 -13 26 -8 -5 -9 -2 -5 9 6 16 -3 22 -26 18 -5 -1 -6 3 -2 8
3 6 13 8 23 4 11 -3 9 1 -6 11 -12 10 -20 22 -17 27 4 5 1 9 -4 9 -6 0 -11 7
-11 16 0 9 -5 12 -13 8 -9 -6 -9 -5 1 8 10 13 9 18 -5 29 -16 12 -17 12 -8 -1
6 -9 2 -7 -8 4 -10 10 -15 26 -12 34 3 8 -3 21 -12 29 -10 8 -12 12 -6 8 9 -4
11 -1 7 9 -3 9 -10 14 -14 11 -4 -3 -11 2 -14 11 -4 10 -2 13 7 8 9 -6 9 -5 0
8 -7 8 -10 17 -7 21 3 3 -3 12 -15 19 -12 7 -21 21 -21 31 0 12 -4 16 -12 11
-8 -5 -7 0 2 11 8 10 10 16 3 12 -16 -10 -42 29 -36 54 5 17 -5 24 -30 20 -5
-1 -6 2 -3 7 3 5 -1 18 -8 28 -10 13 -11 23 -4 31 7 8 3 16 -11 25 -14 9 -17
16 -10 25 8 9 5 11 -13 8 -23 -4 -23 -4 -3 12 20 15 20 15 -2 10 -16 -4 -20
-1 -16 11 4 10 2 13 -5 8 -8 -5 -12 1 -12 19 0 15 -7 28 -17 32 -15 6 -15 7 3
14 16 6 15 8 -8 8 -15 1 -30 5 -33 11 -3 5 0 7 8 4 8 -3 14 1 14 10 0 8 -6 12
-14 9 -8 -3 -13 3 -13 16 0 12 -7 24 -15 27 -8 4 -12 11 -8 17 4 6 0 8 -11 4
-10 -4 -15 -3 -11 3 3 6 0 13 -9 16 -8 3 -13 14 -11 25 2 10 -1 19 -6 19 -6 0
-7 5 -3 12 4 7 3 8 -5 4 -6 -4 -9 -11 -6 -16 3 -5 1 -11 -4 -15 -6 -3 -8 3 -6
15 4 22 -21 54 -36 45 -5 -4 -9 6 -9 21 0 15 -3 24 -7 21 -8 -9 -39 34 -35 48
2 6 -2 4 -9 -2 -7 -7 -18 -13 -23 -13 -6 0 -4 5 4 10 13 8 13 11 1 22 -8 7
-11 8 -8 2 3 -6 0 -11 -7 -11 -8 0 -12 6 -9 14 3 7 -2 16 -11 19 -9 3 -13 11
-9 18 4 6 0 6 -9 -2 -13 -10 -17 -10 -20 0 -3 7 -13 13 -23 13 -10 0 -19 6
-21 13 -1 7 0 8 3 2 7 -15 20 -12 20 4 0 9 -10 13 -29 12 -21 -2 -27 2 -23 11
2 8 1 11 -4 8 -5 -3 -12 -1 -16 4 -3 6 -12 8 -20 4 -11 -4 -13 -1 -8 13 5 13
3 15 -8 9 -8 -5 -11 -4 -6 0 8 10 29 15 66 19 14 2 27 8 29 14 2 7 8 10 13 6
5 -3 9 0 9 7 0 7 8 9 21 6 16 -4 18 -3 9 8 -9 11 -7 13 15 9 19 -3 24 -1 19 7
-5 9 -2 10 9 6 9 -3 19 -2 22 4 4 5 11 7 16 4 5 -4 6 2 2 12 -6 16 -5 16 11 4
9 -8 16 -10 15 -5 -4 22 2 34 17 34 8 0 13 4 10 9 -3 5 1 11 9 14 8 4 13 1 11
-6 -1 -7 -1 -9 1 -4 3 4 9 4 15 1 5 -4 5 4 -2 16 -7 13 -8 20 -2 16 6 -3 14
-1 17 5 4 5 13 8 20 5 7 -2 12 2 11 11 0 9 5 18 13 21 9 3 11 0 6 -8 -5 -9 -4
-11 4 -6 9 6 9 11 -1 24 -10 12 -10 14 0 8 6 -4 12 -2 12 3 0 6 10 11 22 11
21 0 21 0 2 16 -10 8 -14 13 -8 10 7 -3 23 3 35 15 13 11 18 17 10 13 -9 -4
-12 -2 -9 7 3 8 11 13 18 11 8 -2 10 3 7 13 -4 9 -1 15 10 15 13 0 13 3 3 15
-11 13 -10 14 5 9 13 -5 16 -4 11 4 -4 7 -2 12 5 12 8 0 8 4 -1 15 -11 13 -10
14 3 10 8 -4 18 -1 23 6 4 7 3 10 -3 6 -5 -3 -10 0 -10 7 0 9 7 12 16 8 14 -5
14 -3 3 10 -11 14 -10 19 8 31 12 8 22 21 24 28 1 8 5 20 9 26 6 9 3 11 -10 6
-15 -6 -16 -4 -6 9 7 8 10 18 6 22 -4 4 1 4 12 0 11 -4 17 -3 12 1 -4 5 0 19
9 33 9 13 12 22 7 19 -5 -3 -15 -2 -23 4 -13 7 -13 9 1 9 12 0 15 7 11 25 -2
14 1 31 7 38 6 8 8 17 4 21 -11 10 -12 37 -2 30 5 -3 7 -9 5 -13 -3 -4 2 -8
10 -8 10 0 11 4 4 11 -14 14 -13 69 3 85 10 11 10 13 0 7 -14 -8 -14 -8 -17
46 -1 20 2 34 7 31 8 -5 2 46 -8 55 -3 3 2 16 10 28 11 17 12 25 3 30 -7 4 -8
3 -4 -4 5 -8 1 -10 -9 -5 -9 3 -13 9 -8 12 4 3 14 13 20 22 10 13 10 16 -2 16
-8 0 -11 -5 -8 -10 3 -6 1 -7 -5 -3 -14 9 -3 38 12 30 6 -3 3 1 -6 9 -18 14
-25 33 -10 23 9 -5 7 48 -3 81 -4 13 -12 20 -19 16 -6 -3 -2 4 9 17 l20 23
-22 -12 c-15 -8 -23 -8 -23 -1 0 5 5 10 10 10 6 0 3 12 -7 28 -17 25 -17 26 0
13 26 -20 20 -5 -8 24 -14 14 -21 25 -15 25 16 0 12 27 -6 34 -10 4 -14 14
-11 26 3 11 0 23 -5 27 -7 4 -8 1 -3 -7 5 -8 4 -11 -3 -6 -6 4 -9 13 -6 20 3
7 -2 21 -11 30 -9 9 -13 21 -9 27 4 8 3 9 -4 5 -7 -4 -12 -1 -12 9 0 10 -5 13
-12 9 -10 -6 -10 -5 -1 8 11 12 8 17 -15 28 -16 7 -22 15 -14 17 6 3 9 9 6 14
-3 6 -12 5 -22 -3 -10 -7 -14 -9 -10 -4 4 5 1 21 -7 36 -8 15 -13 29 -12 31 1
2 -4 -3 -12 -11 -12 -13 -13 -13 -8 3 4 9 2 17 -4 17 -6 0 -7 5 -4 10 3 6 -3
10 -15 10 -12 0 -18 5 -15 10 3 6 1 10 -5 10 -6 0 -9 4 -5 9 3 5 -5 11 -17 13
-13 2 -22 8 -21 14 1 5 -8 16 -20 24 -20 12 -21 12 -9 -3 12 -14 11 -15 -12
-4 -14 7 -26 20 -26 29 0 11 -5 15 -14 12 -8 -3 -17 0 -22 7 -5 8 -3 10 6 4 8
-5 11 -4 7 3 -4 5 -18 9 -32 8 -15 -2 -22 1 -18 7 4 6 0 8 -11 4 -9 -4 -14 -3
-11 2 3 5 1 12 -5 16 -5 3 -10 0 -10 -7 0 -10 -3 -9 -9 2 -6 8 -8 17 -6 20 2
4 -2 7 -9 7 -8 0 -12 -7 -9 -16 2 -9 -1 -7 -8 4 -23 36 -42 45 -61 28 -16 -14
-17 -14 -14 4 3 12 -1 20 -9 20 -8 0 -12 -4 -9 -8 2 -4 0 -11 -6 -14 -6 -4
-10 -3 -9 2 3 19 -2 33 -12 33 -5 0 -7 -4 -4 -10 3 -5 1 -10 -4 -10 -6 0 -11
5 -11 11 0 8 -4 8 -14 0 -10 -9 -16 -8 -26 4 -7 8 -16 12 -21 9 -5 -3 -9 1 -9
8 0 9 -3 9 -10 -2 -6 -10 -10 -11 -10 -2 0 6 -12 12 -26 12 -14 0 -23 4 -19 9
3 5 0 13 -6 17 -8 5 -9 3 -4 -6 6 -10 3 -12 -13 -8 -12 4 -20 2 -17 -2 3 -5 1
-12 -5 -15 -6 -4 -9 -1 -8 7 2 8 -8 13 -30 13 -18 0 -37 7 -42 15 -8 13 -10
12 -10 -2 0 -10 -4 -18 -10 -18 -5 0 -7 7 -3 16 5 14 3 15 -15 5 -14 -7 -23
-8 -27 -1 -3 5 -11 10 -17 10 -6 0 -5 -7 3 -17 12 -16 12 -17 -2 -6 -9 7 -20
9 -24 5 -5 -4 -4 -1 0 7 6 11 4 13 -11 7 -30 -12 -38 -12 -39 1 0 23 -15 26
-16 2 0 -13 -3 -18 -6 -11 -2 6 -18 12 -34 12 -20 0 -28 -4 -23 -12 4 -7 3 -8
-5 -4 -8 6 -9 12 -2 20 8 9 6 12 -9 11 -11 -1 -23 -5 -27 -10 -5 -4 -1 -5 7 0
8 5 12 4 7 0 -13 -15 -46 -13 -40 3 5 12 3 12 -15 1 -11 -7 -18 -17 -15 -23 3
-5 1 -6 -5 -2 -6 4 -8 14 -5 24 6 14 4 15 -8 5 -8 -6 -30 -10 -49 -9 -19 1
-43 -2 -54 -7 -13 -6 -16 -6 -12 2 11 17 -11 13 -30 -6 -16 -16 -16 -16 -9 7
7 21 6 23 -6 13 -8 -6 -30 -10 -49 -9 -19 1 -43 -2 -54 -7 -13 -6 -16 -6 -12
2 11 17 -11 13 -30 -6 -16 -16 -16 -16 -9 7 7 21 6 23 -6 13 -8 -6 -30 -10
-49 -9 -19 1 -43 -2 -54 -7 -13 -6 -16 -6 -12 2 11 17 -11 13 -30 -6 -16 -16
-16 -16 -10 7 7 24 6 24 -8 6 -11 -13 -16 -15 -16 -6 0 10 -5 9 -19 -4 -18
-16 -20 -16 -35 6 -14 20 -21 18 -17 -4 0 -4 -6 -5 -14 -2 -8 4 -13 9 -10 13
2 4 -2 8 -10 8 -8 0 -12 -4 -9 -9 3 -4 -7 -8 -23 -8 -22 0 -25 2 -13 10 8 5
12 10 7 10 -4 0 -16 -6 -27 -12 -16 -10 -24 -10 -41 0 -19 12 -20 11 -9 -10
l11 -23 -20 23 -20 23 -11 -21 c-9 -17 -14 -19 -26 -9 -8 6 -12 14 -9 18 3 3
10 -1 15 -9 6 -9 10 -10 10 -3 0 6 -4 14 -9 17 -13 8 -42 -4 -35 -15 3 -5 -2
-6 -10 -3 -9 3 -13 11 -9 18 3 6 1 6 -8 -1 -7 -7 -24 -13 -38 -13 -21 0 -23 2
-11 10 8 5 12 10 7 10 -4 0 -16 -6 -27 -12 -16 -10 -24 -10 -41 0 -19 12 -20
11 -9 -10 l11 -23 -20 23 c-18 21 -20 21 -30 5 -6 -10 -11 -13 -11 -7 0 14
-20 23 -38 17z m26 -28 c-3 -3 -9 2 -12 12 -6 14 -5 15 5 6 7 -7 10 -15 7 -18z
m1737 -85 c3 -5 1 -10 -4 -10 -6 0 -11 5 -11 10 0 6 2 10 4 10 3 0 8 -4 11
-10z m-1080 -311 c-3 -15 -1 -18 8 -11 18 13 49 23 43 13 -3 -5 5 -11 19 -13
13 -3 22 -1 19 3 -8 13 10 11 25 -3 11 -10 13 -10 7 0 -5 7 -1 12 9 12 10 0
14 -5 10 -12 -4 -7 1 -4 9 6 9 11 16 14 16 8 0 -7 5 -12 11 -12 5 0 7 5 4 10
-10 16 2 12 21 -7 17 -17 17 -17 12 5 -5 19 -4 21 8 11 7 -6 11 -15 8 -20 -3
-5 0 -9 5 -9 6 0 11 7 11 15 0 8 5 15 11 15 6 0 8 -7 5 -17 -6 -14 -3 -14 15
3 12 10 19 14 16 8 -4 -7 3 -14 18 -16 13 -3 22 -1 19 3 -2 4 12 6 33 3 21 -3
45 -5 53 -4 8 0 23 0 33 1 9 0 15 4 12 9 -6 10 14 7 40 -6 11 -6 31 -8 45 -4
27 7 53 2 45 -9 -2 -4 2 -8 10 -8 8 0 12 4 9 9 -3 4 0 8 5 8 6 0 11 -4 11 -10
0 -5 7 -10 16 -10 8 0 12 5 9 11 -4 6 2 5 13 -2 12 -7 19 -16 17 -19 -2 -4 2
-7 10 -7 8 0 12 3 10 7 -2 3 9 6 24 5 19 0 27 -4 24 -13 -4 -10 -8 -10 -22 0
-14 12 -14 11 -2 -4 7 -10 18 -15 25 -11 19 13 30 10 44 -12 13 -20 13 -20 8
0 -6 19 -5 19 8 2 8 -10 22 -17 32 -15 9 2 19 -4 21 -12 4 -13 3 -13 -7 0 -10
13 -11 13 -7 0 2 -8 11 -14 21 -12 9 2 16 -2 16 -8 0 -5 5 -10 11 -10 5 0 7 6
3 13 -5 8 -3 8 9 -2 9 -7 14 -18 10 -24 -4 -7 0 -8 12 -3 16 6 16 4 4 -11 -8
-9 -9 -14 -2 -10 6 4 15 1 20 -6 4 -7 16 -17 27 -20 12 -5 16 -13 12 -23 -5
-14 -4 -15 8 -5 11 9 16 9 22 0 4 -8 3 -9 -4 -5 -7 4 -12 1 -12 -9 0 -10 5
-13 12 -9 8 5 9 2 5 -10 -6 -14 -3 -15 14 -5 19 10 20 9 9 -11 -10 -18 -9 -21
1 -15 9 6 11 3 6 -8 -4 -12 -1 -17 11 -17 15 0 15 -2 2 -10 -12 -8 -12 -10 5
-10 15 0 17 -3 7 -9 -11 -6 -9 -9 5 -13 11 -3 20 -12 20 -21 0 -9 -5 -13 -10
-10 -6 4 1 -14 15 -40 15 -26 22 -45 16 -44 -6 1 -12 -6 -13 -16 -3 -15 -1
-16 11 -6 13 10 13 8 4 -16 -9 -23 -8 -26 5 -22 12 5 13 3 2 -14 -10 -16 -9
-21 3 -29 12 -8 12 -10 -5 -11 -16 -1 -17 -2 -3 -6 9 -2 16 -13 15 -24 -1 -11
-7 -17 -14 -15 -10 4 -10 1 0 -17 6 -12 17 -25 22 -29 6 -5 5 -8 -3 -8 -7 0
-10 -4 -7 -10 3 -5 -2 -11 -12 -11 -16 -1 -16 -2 -1 -6 9 -2 16 -13 15 -24 -1
-12 -7 -17 -14 -14 -10 3 -11 0 -4 -13 6 -11 6 -24 0 -33 -14 -23 -10 -36 6
-15 8 11 15 15 15 10 0 -6 -5 -15 -12 -22 -7 -7 -8 -12 -4 -12 5 0 3 -7 -4
-15 -7 -8 -9 -15 -5 -15 4 0 2 -7 -5 -15 -7 -9 -10 -18 -6 -22 3 -3 -1 -17
-10 -31 -9 -13 -14 -32 -11 -42 3 -14 1 -17 -11 -13 -10 4 -13 2 -8 -5 4 -7 2
-12 -5 -12 -8 0 -8 -4 1 -15 11 -13 10 -14 -5 -9 -12 5 -16 4 -11 -4 3 -6 1
-14 -6 -19 -7 -4 -22 -19 -33 -33 l-20 -25 30 25 30 25 -20 -25 c-11 -14 -21
-26 -21 -28 -1 -2 -10 -5 -21 -6 -11 -2 -17 -10 -15 -21 2 -10 -1 -14 -7 -10
-6 3 -11 1 -11 -5 0 -6 -4 -8 -10 -5 -9 5 -15 -15 -11 -38 1 -4 -8 -3 -20 4
-15 8 -19 8 -15 0 4 -6 0 -14 -8 -17 -9 -3 -13 -10 -10 -15 3 -5 0 -9 -5 -9
-6 0 -11 5 -11 11 0 6 -9 1 -20 -12 -17 -21 -21 -22 -30 -9 -8 12 -10 11 -10
-8 0 -13 -4 -20 -10 -17 -6 4 -7 12 -3 18 4 7 0 6 -10 -2 -19 -15 -23 -26 -5
-15 7 4 8 3 4 -5 -4 -6 -11 -9 -16 -6 -5 3 -11 1 -15 -5 -4 -6 -12 -7 -18 -3
-23 14 -37 11 -52 -10 -8 -12 -15 -16 -15 -9 0 10 -5 9 -16 -3 -14 -13 -19
-14 -25 -3 -7 10 -9 10 -9 0 0 -9 -5 -10 -17 -3 -20 11 -57 -4 -48 -19 3 -6
-1 -7 -10 -3 -13 4 -14 7 -3 14 9 6 6 8 -9 6 -12 0 -20 -4 -17 -8 9 -15 -26
-17 -41 -3 -8 9 -15 11 -15 5 0 -6 -12 -11 -26 -11 -14 0 -23 4 -20 8 3 5 -9
8 -26 7 -18 -1 -34 -7 -36 -13 -2 -7 -8 -9 -13 -6 -6 3 -5 12 3 21 12 15 11
15 -9 3 -12 -8 -20 -16 -18 -20 4 -6 -59 -4 -91 4 -11 2 -27 0 -34 -4 -8 -5
-21 -5 -30 0 -9 5 -22 5 -30 0 -17 -11 -42 -1 -33 13 3 6 -4 3 -17 -6 -18 -12
-27 -14 -37 -5 -9 8 -13 7 -13 -1 0 -7 -5 -9 -10 -6 -8 5 -7 12 2 22 12 15 11
15 -9 3 -12 -8 -20 -16 -18 -20 2 -3 -16 -4 -38 -2 -39 3 -70 3 -99 2 -27 -2
-53 8 -50 20 1 6 -2 8 -8 5 -6 -4 -9 -14 -5 -22 4 -12 2 -13 -8 -5 -7 6 -14
25 -15 43 -1 17 -7 39 -12 49 -7 14 -6 17 7 16 10 0 17 7 18 21 1 12 -2 20 -7
17 -5 -4 -7 -13 -4 -21 3 -8 1 -11 -4 -8 -12 7 -9 37 4 46 4 4 3 16 -3 28 -8
14 -8 21 -1 21 5 0 10 4 10 10 0 5 -8 7 -17 4 -11 -4 -14 -3 -7 3 11 7 19 39
15 53 -7 20 -4 121 3 123 5 2 4 13 -3 25 -8 14 -8 22 -1 22 5 0 10 4 10 10 0
5 -8 7 -17 4 -14 -5 -15 -4 -4 4 13 10 18 103 6 122 -3 5 -1 11 5 15 17 10 11
25 -7 19 -14 -5 -15 -4 -4 4 13 10 18 103 6 122 -3 5 -1 11 5 15 17 10 11 25
-7 19 -14 -5 -15 -4 -4 4 13 10 18 103 6 122 -3 5 -1 11 5 15 17 10 11 25 -7
19 -14 -5 -15 -4 -4 4 13 10 18 103 6 122 -3 5 -1 11 5 15 6 4 8 11 4 16 -3 5
-11 6 -17 2 -7 -4 -7 0 1 10 8 9 11 21 7 27 -3 5 0 10 7 10 8 0 9 3 3 8 -15
11 -15 44 -1 39 7 -3 13 1 13 9 0 7 -4 11 -8 8 -11 -6 -17 25 -14 71 3 51 2
50 22 34 10 -8 14 -9 10 -2 -4 6 -3 14 3 18 5 3 10 -2 11 -12 0 -17 1 -17 8 0
7 19 19 21 36 7 6 -5 20 -7 30 -6 11 2 27 0 36 -5 10 -5 24 -2 39 8 13 9 20
11 16 5 -4 -7 -3 -12 2 -12 6 0 12 7 16 15 8 22 15 18 11 -6z m-55 5 c0 -8
-19 -13 -24 -6 -3 5 1 9 9 9 8 0 15 -2 15 -3z m480 0 c0 -8 -19 -13 -24 -6 -3
5 1 9 9 9 8 0 15 -2 15 -3z m1225 -392 c-3 -3 -11 0 -18 7 -9 10 -8 11 6 5 10
-3 15 -9 12 -12z m-12 -567 c-3 -9 -8 -14 -10 -11 -3 3 -2 9 2 15 9 16 15 13
8 -4z m-23 -91 c0 -8 -19 -13 -24 -6 -3 5 1 9 9 9 8 0 15 -2 15 -3z m-918
-256 c-7 -7 -12 -8 -12 -2 0 6 3 14 7 17 3 4 9 5 12 2 2 -3 -1 -11 -7 -17z
m-305 -35 c0 -8 -6 -9 -19 -2 -10 5 -18 11 -18 12 0 2 8 3 18 3 10 0 19 -6 19
-13z m864 -136 c-10 -9 -11 -8 -5 6 3 10 9 15 12 12 3 -3 0 -11 -7 -18z m-74
-932 c0 -8 -4 -12 -9 -9 -5 3 -6 10 -3 15 9 13 12 11 12 -6z m268 -533 c-3 -3
-11 0 -18 7 -9 10 -8 11 6 5 10 -3 15 -9 12 -12z m-2180 -211 c3 -5 2 -12 -3
-15 -5 -3 -9 1 -9 9 0 17 3 19 12 6z"/>
<path d="M1875 4070 c-3 -5 -1 -10 4 -10 6 0 11 5 11 10 0 6 -2 10 -4 10 -3 0
-8 -4 -11 -10z"/>
<path d="M1810 4061 c0 -6 4 -13 10 -16 6 -3 7 1 4 9 -7 18 -14 21 -14 7z"/>
<path d="M1813 4015 c0 -8 4 -12 9 -9 5 3 6 10 3 15 -9 13 -12 11 -12 -6z"/>
<path d="M1816 3873 c-6 -14 -5 -15 5 -6 7 7 10 15 7 18 -3 3 -9 -2 -12 -12z"/>
<path d="M3145 3240 c-3 -6 1 -7 9 -4 18 7 21 14 7 14 -6 0 -13 -4 -16 -10z"/>
<path d="M2093 2765 c0 -8 4 -12 9 -9 5 3 6 10 3 15 -9 13 -12 11 -12 -6z"/>
<path d="M2156 2763 c-6 -14 -5 -15 5 -6 7 7 10 15 7 18 -3 3 -9 -2 -12 -12z"/>
<path d="M1886 2758 c3 -5 10 -6 15 -3 13 9 11 12 -6 12 -8 0 -12 -4 -9 -9z"/>
<path d="M2210 2759 c0 -5 5 -7 10 -4 6 3 10 8 10 11 0 2 -4 4 -10 4 -5 0 -10
-5 -10 -11z"/>
<path d="M1867 4495 c3 -8 9 -12 14 -9 12 7 11 11 -5 17 -10 4 -13 1 -9 -8z"/>
<path d="M2619 4493 c-13 -16 -12 -17 4 -4 9 7 17 15 17 17 0 8 -8 3 -21 -13z"/>
<path d="M2776 4482 c-3 -5 1 -9 9 -9 8 0 12 4 9 9 -3 4 -7 8 -9 8 -2 0 -6 -4
-9 -8z"/>
<path d="M3715 3501 c-3 -5 -2 -12 3 -15 5 -3 9 1 9 9 0 17 -3 19 -12 6z"/>
<path d="M3716 3382 c-3 -5 1 -9 9 -9 8 0 12 4 9 9 -3 4 -7 8 -9 8 -2 0 -6 -4
-9 -8z"/>
<path d="M2616 2302 c-3 -5 1 -9 9 -9 8 0 12 4 9 9 -3 4 -7 8 -9 8 -2 0 -6 -4
-9 -8z"/>
<path d="M3708 1773 c7 -3 16 -2 19 1 4 3 -2 6 -13 5 -11 0 -14 -3 -6 -6z"/>
<path d="M3240 1600 c0 -5 5 -10 11 -10 5 0 7 5 4 10 -3 6 -8 10 -11 10 -2 0
-4 -4 -4 -10z"/>
<path d="M3810 1560 c0 -5 5 -10 11 -10 5 0 7 5 4 10 -3 6 -8 10 -11 10 -2 0
-4 -4 -4 -10z"/>
<path d="M3376 1313 c-6 -14 -5 -15 5 -6 7 7 10 15 7 18 -3 3 -9 -2 -12 -12z"/>
<path d="M4059 1108 c-6 -20 -6 -39 0 -42 4 -3 7 6 7 20 0 20 -4 32 -7 22z"/>
<path d="M3536 1005 c4 -8 11 -15 16 -15 6 0 5 6 -2 15 -7 8 -14 15 -16 15 -2
0 -1 -7 2 -15z"/>
<path d="M3580 899 c0 -5 5 -7 10 -4 6 3 10 8 10 11 0 2 -4 4 -10 4 -5 0 -10
-5 -10 -11z"/>
<path d="M4167 849 c7 -7 15 -10 18 -7 3 3 -2 9 -12 12 -14 6 -15 5 -6 -5z"/>
</g>
</svg>
